<?xml version="1.0" standalone="no"?>
<!DOCTYPE svg PUBLIC "-//W3C//DTD SVG 20010904//EN"
 "http://www.w3.org/TR/2001/REC-SVG-20010904/DTD/svg10.dtd">
<svg version="1.0" xmlns="http://www.w3.org/2000/svg"
 width="248.000000pt" height="254.000000pt" viewBox="0 0 248.000000 254.000000"
 preserveAspectRatio="xMidYMid meet">

<g transform="translate(0.000000,254.000000) scale(0.100000,-0.100000)"
fill="#000000" stroke="none">
<path d="M1085 2529 c-77 -10 -231 -49 -284 -72 l-35 -15 60 -38 c32 -21 136
-87 229 -147 94 -61 175 -110 180 -110 11 0 431 267 453 287 11 11 -2 18 -65
39 -156 51 -392 76 -538 56z"/>
<path d="M490 2278 c-138 -110 -305 -309 -278 -333 19 -18 315 -205 324 -205
4 0 13 8 20 18 10 13 13 80 14 295 0 152 -3 277 -7 277 -5 -1 -37 -24 -73 -52z"/>
<path d="M1912 2033 c2 -197 7 -298 14 -300 9 -3 312 184 342 211 27 26 -148
234 -285 339 -34 26 -64 47 -67 47 -4 0 -5 -134 -4 -297z"/>
<path d="M1980 1607 c47 -121 63 -223 57 -366 -11 -266 -123 -497 -318 -652
-123 -98 -288 -165 -424 -170 l-55 -2 0 -210 0 -209 78 7 c313 28 567 146 782
364 238 240 354 500 375 846 6 99 5 112 -11 132 -14 16 -405 271 -500 326 -7
4 1 -26 16 -66z"/>
<path d="M12 1129 c39 -408 301 -800 660 -984 l74 -38 225 143 c123 78 230
148 237 155 11 10 -1 13 -55 18 -247 22 -483 179 -613 408 -36 64 -36 64 -280
221 -135 87 -247 158 -251 158 -3 0 -1 -36 3 -81z"/>
</g>
</svg>
